<svg xmlns="http://www.w3.org/2000/svg" viewBox="0 0 31.99 31.99"><title stroke="none" fill="#000000" stroke-width="1px">faction-Ventus</title><path d="M24,2.14a16,16,0,1,0,5.82,21.93l0-.08A16,16,0,0,0,24.07,2.18l-.08,0Zm3.1,20.27A12.82,12.82,0,1,1,22.46,4.93l-.06,0a12.82,12.82,0,0,1,4.66,17.57l0-.06ZM22.18,5.29a12.36,12.36,0,1,0,4.49,16.94l0-.06A12.16,12.16,0,0,0,28.37,16,12.34,12.34,0,0,0,22.24,5.32l-.06,0ZM9.62,21.55c-.68.25-1,1.33-.81,2.72A10.8,10.8,0,0,1,5.1,16.11a11,11,0,0,1,.56-3.47l0,.07,4.1,8.8-.12,0h0ZM9,18.08,6,11.71A11.11,11.11,0,0,1,7.38,9.45l0,0c.93,2.41,2.43,4,3.67,3.8l1.48,3.18a2.23,2.23,0,0,0-1.21-.35,2.33,2.33,0,0,0-2.3,2Zm5.64,8.8a10.89,10.89,0,0,1-1.28-.23h.08A9.63,9.63,0,0,0,13,25.07l0,.07a6.87,6.87,0,0,0-2.3-3.38l-.63-1.34a2.35,2.35,0,0,0,3.52-1.63v0l1.55,3.33c-.12,1.65-.29,3.24-.51,4.78Zm.61-6.39-3.53-7.57c1-.92,1.27-3.44.54-6.17-.08-.26-.15-.52-.24-.76a10.08,10.08,0,0,1,2.57-.65h.05a75.61,75.61,0,0,1,.73,10.59v.19h0q0,2.24-.12,4.38Zm1.28-4.38v-.18a78.5,78.5,0,0,1,.78-11l0,.42A10.5,10.5,0,0,1,20,6l-.07,0c-.09.24-.17.5-.24.76-.73,2.73-.47,5.25.54,6.17l-3.53,7.57c-.08-1.43-.12-2.9-.12-4.38Zm4.66,5.65a6.94,6.94,0,0,0-2.31,3.38,11.51,11.51,0,0,0-.41,1.45v.07a9.83,9.83,0,0,1-1.15.22h0c-.22-1.54-.39-3.13-.51-4.78l1.55-3.32a2.33,2.33,0,0,0,2.3,2h0a2.26,2.26,0,0,0,1.21-.35h0Zm5.61-5.65h0a10.79,10.79,0,0,1-3.7,8.15h0c.15-1.39-.13-2.47-.81-2.72l-.12,0h0l4.1-8.8a10.8,10.8,0,0,1,.54,3.39Zm-3.9,2a2.33,2.33,0,0,0-3.53-1.63h0l1.49-3.18c1.24.21,2.73-1.39,3.66-3.8a10.27,10.27,0,0,1,1.31,2.17l0,.07Z" fill="#118341" stroke="none" stroke-width="1px"></path></svg>