<svg xmlns="http://www.w3.org/2000/svg" viewBox="0 0 41.06 32"><title stroke="none" fill="#000000" stroke-width="1px">faction-Diamond</title><path d="M30.61,2.33l7.26,8.31-17.34,18-17.34-18,7.26-8.31ZM31.69,0H9.36L0,10.72,20.53,32l1.72-1.78,18.81-19.5-1.39-1.6L31.69,0ZM27.1,10.2h8.69l-6.11-7H21.85Zm-11.86,0h10.4l-5.2-6.9Zm5.29,16.46,5.64-15.3H14.88ZM5.3,11.36l13.48,14-5.15-14Zm8.47-1.16,5.25-7H11.35l-6.1,7Zm13.66,1.16L22.29,25.3,35.73,11.36Z" fill="#92a2cb" stroke="none" stroke-width="1px"></path></svg>