<svg xmlns="http://www.w3.org/2000/svg" viewBox="0 0 31.99 31.99"><title stroke="none" fill="#000000" stroke-width="1px">faction-Aurelus</title><path d="M16,3.63h0A12.37,12.37,0,1,0,28.35,16h0A12.37,12.37,0,0,0,16,3.63Zm7.09,4.25a10.93,10.93,0,0,1,3.42,5.29l0,.08H24.29A8.82,8.82,0,0,0,22,9.77h0Zm-14,0,1.09,1.88a8.67,8.67,0,0,0-2.27,3.43l0,.06H5.6A11,11,0,0,1,9,7.89ZM9,24.44a10.91,10.91,0,0,1-3.42-5.3l0-.08H7.84a8.8,8.8,0,0,0,2.28,3.49h0Zm14,0L22,22.55a8.8,8.8,0,0,0,2.28-3.43l0-.06h2.23a11,11,0,0,1-3.43,5.36v0Zm-.7-7.32a6.42,6.42,0,0,1-5.31,5.36h0v2.35a9.3,9.3,0,0,0,1.67-.35h-.06l1.08,1.89a10.91,10.91,0,0,1-7.39,0l.07,0,1.09-1.89a7.8,7.8,0,0,0,1.56.33h0V22.48a6.43,6.43,0,0,1-5.35-5.32v0H5.25c0-.32,0-.65,0-1s0-.65,0-1H9.74a6.41,6.41,0,0,1,5.32-5.35h0V7.49a8.41,8.41,0,0,0-1.66.35l.06,0L12.4,5.94A10.63,10.63,0,0,1,16,5.3h.1A11,11,0,0,1,19.8,6l-.08,0L18.64,7.82a8.87,8.87,0,0,0-1.57-.33h0V9.83a6.43,6.43,0,0,1,5.35,5.32v0h4.49c0,.32,0,.64,0,1s0,.65,0,1Zm-6.32-6.2h0a5.24,5.24,0,1,0,5.23,5.24h0a5.23,5.23,0,0,0-5.23-5.23Zm-1,9a3.86,3.86,0,0,1,0-7.47h0V19.9Zm1.94,0V12.42a3.87,3.87,0,0,1,0,7.48ZM16,0A16,16,0,1,0,32,16h0A16,16,0,0,0,16,0Zm0,28.81h0A12.82,12.82,0,1,1,28.81,16h0A12.83,12.83,0,0,1,16,28.81Z" fill="#eec92d" stroke="none" stroke-width="1px"></path></svg>