<svg xmlns="http://www.w3.org/2000/svg" viewBox="0 0 32 32"><title stroke="none" fill="#000000" stroke-width="1px">faction-Darkus</title><path d="M15.89,12.45l3.42,3.42L15.89,19.3l-3.43-3.43ZM9.82,5.29A12.36,12.36,0,1,0,26.68,9.75l0,.06a12.4,12.4,0,0,0-17-4.49l.06,0Zm9.59.31A10.92,10.92,0,0,1,24.5,9.27l0,0-4.18,4.18-4.4-4.4Zm1.32,10.27-4.84,4.85L11,15.87,15.89,11ZM12.39,5.59,15.9,9.11l-4.37,4.36L7.3,9.24a10.85,10.85,0,0,1,5-3.62l.07,0ZM5,16v-.23l3.32-3.31,2.05,2.06L9,15.87l1.37,1.38L8.35,19.3ZM19.39,26.16,15.92,22.7l-3.48,3.48a11,11,0,0,1-5.12-3.64l0,0,4.23-4.24,4.4,4.4,4.41-4.4,4.18,4.18a11,11,0,0,1-5.06,3.68l-.08,0Zm7.36-10.29V16L23.43,19.3l-2.06-2.05,1.38-1.37-1.38-1.37,2.06-2.06,3.32,3.31ZM29.86,8a16,16,0,1,0-5.78,21.82l-.08,0A16,16,0,0,0,29.82,7.92l0,.08ZM28.39,19.32A12.82,12.82,0,1,1,9.53,4.92l.06,0A12.68,12.68,0,0,1,16,3.17,12.84,12.84,0,0,1,28.83,16a12.69,12.69,0,0,1-.46,3.4l0-.09Z" fill="#575757" stroke="none" stroke-width="1px"></path></svg>