<svg xmlns="http://www.w3.org/2000/svg" viewBox="0 0 31.99 31.99"><title stroke="none" fill="#000000" stroke-width="1px">faction-Pyrus</title><path d="M19.31,16.84,16,18.72l-3.29-1.88,3.29-2ZM16,12.51,14.47,10.2,16,7.76l1.55,2.44Zm6.16-7.22a12.36,12.36,0,1,0,4.49,17l0-.06A12.19,12.19,0,0,0,28.37,16,12.32,12.32,0,0,0,22.24,5.32ZM6.93,22a10.74,10.74,0,0,1-1.74-5.23V15.41a10.87,10.87,0,0,1,8.58-9.95h.07L9.76,10.27l2,2.86L5.46,16.94l5.18,2.95ZM16,26.93h0a10.83,10.83,0,0,1-4.75-1.09l.07,0L16,23.17l4.69,2.69A10.53,10.53,0,0,1,16,26.93Zm6.5-2.16L16,21l-6.5,3.73a10.79,10.79,0,0,1-1.23-1.08h0l6.64-3.81-5.26-3L15,13.67l-2.47-3.44,3.53-5,3.53,5-2.47,3.44,5.29,3.21-5.26,3,6.64,3.81a12,12,0,0,1-1.2,1.06l0,0Zm4.33-8a10.75,10.75,0,0,1-1.76,5.3l0,0L21.4,19.89l5.18-2.95-6.29-3.81,2-2.86L18.21,5.45a10.88,10.88,0,0,1,8.64,9.93v1.37ZM24,2.14a16,16,0,1,0,5.82,21.93l0-.08A16,16,0,0,0,24.07,2.18l-.08,0Zm3.1,20.27A12.81,12.81,0,1,1,22.47,4.93l-.07,0A12.82,12.82,0,0,1,28.81,16a12.69,12.69,0,0,1-1.75,6.47l0-.06Z" fill="#eb1d25" stroke="none" stroke-width="1px"></path></svg>