<svg xmlns="http://www.w3.org/2000/svg" viewBox="0 0 31.99 32"><title stroke="none" fill="#000000" stroke-width="1px">faction-Haos</title><path d="M29.85,8a16,16,0,1,0-5.78,21.81l-.07,0A16,16,0,0,0,29.81,7.92ZM28.38,19.31a12.8,12.8,0,1,1-1.31-9.79l0,.06A12.68,12.68,0,0,1,28.82,16a12.81,12.81,0,0,1-.46,3.41l0-.09ZM19.2,4.05A12,12,0,0,0,16,3.63,12.36,12.36,0,1,0,26.68,9.75l0,.06a12.39,12.39,0,0,0-7.42-5.74Zm-4.37,9.08a3,3,0,0,0-1.16.73h0A3,3,0,0,0,13,15v0a2.57,2.57,0,0,0-.18.7h-1l-.52-1.93,2-.34.35-2,1.93.52v1a2.89,2.89,0,0,0-.73.18h.07ZM5.17,15.39A10.8,10.8,0,0,1,6,11.9L6,12a2.1,2.1,0,0,0,.4-.18h0a2.36,2.36,0,0,0,1.16-2,2,2,0,0,0,0-.42h0a10.78,10.78,0,0,1,7.72-4.12h0l-1.42,5L10.59,6.68l1.74,5.4L5.17,15.66v-.27Zm2.3,7.37a2.77,2.77,0,0,0,0-.42h0A2.34,2.34,0,0,0,6,20.15H6a10.6,10.6,0,0,1-.78-3.38v-.3L12.34,20l-1.75,5.4,3.21-3.55,1.42,5a10.86,10.86,0,0,1-7.74-4.11l0,0Zm8-2.56-1.93.53-.35-2-2-.35.53-1.93h1a2.71,2.71,0,0,0,.18.72v-.06A3.09,3.09,0,0,0,14.8,19h0a3.67,3.67,0,0,0,.69.18h0v1Zm.78-8.26,1.93-.52.34,2,2,.34L20,15.68H19A3.4,3.4,0,0,0,18.8,15V15A3.07,3.07,0,0,0,17,13.14h0a3.58,3.58,0,0,0-.7-.18h0v-1Zm0,7.24A4.1,4.1,0,0,0,17,19h-.07a3,3,0,0,0,1.16-.73h0a3,3,0,0,0,.72-1.13v0a3.31,3.31,0,0,0,.18-.69h1l.52,1.93-2,.34-.34,2-1.93-.52v-1Zm10.57-2.45a10.6,10.6,0,0,1-.8,3.5l0-.07a2.33,2.33,0,0,0-1.52,2.18h0v0a1.58,1.58,0,0,0,0,.38h0a10.85,10.85,0,0,1-7.74,4.16h0l1.43-5,3.21,3.55L19.69,20l7.15-3.58v.27Zm0-1.07-7.15-3.58,1.74-5.4-3.21,3.54-1.43-5a10.85,10.85,0,0,1,7.75,4.11v0a2.77,2.77,0,0,0,0,.42,2.31,2.31,0,0,0,1.15,2h0a2.12,2.12,0,0,0,.37.18h0a10.72,10.72,0,0,1,.77,3.39v.3Z" fill="#45c0bf" stroke="none" stroke-width="1px"></path></svg>