<svg xmlns="http://www.w3.org/2000/svg" viewBox="0 0 31.99 31.99"><title stroke="none" fill="#000000" stroke-width="1px">faction-Aquos</title><path d="M16,3.63h0A12.37,12.37,0,1,0,28.35,16h0A12.37,12.37,0,0,0,16,3.63ZM23.4,9.46A9,9,0,0,1,24,8.58v0A10.84,10.84,0,0,1,26.13,12l0,.07A6.56,6.56,0,0,0,22,13.83h0a11.39,11.39,0,0,1,1.48-4.42ZM5.15,15.92a11.05,11.05,0,0,1,.18-2V14A8,8,0,0,1,10,15.92a8,8,0,0,1-4.67,1.94,10.78,10.78,0,0,1-.17-1.94ZM8.6,22.37a7.59,7.59,0,0,1-.62.88H8a11,11,0,0,1-2.12-3.4l0-.07A6.57,6.57,0,0,0,10.05,18h0a11.61,11.61,0,0,1-1.47,4.42l0-.06ZM5.85,12.07A10.8,10.8,0,0,1,8,8.59H8a6.48,6.48,0,0,1,.59.83l0,0A11.56,11.56,0,0,1,10,13.77v.06a6.51,6.51,0,0,0-4.18-1.76Zm6,13.86a11.55,11.55,0,0,1-1.61-.84l.05,0c.12-.16.23-.33.35-.5A16.73,16.73,0,0,0,13,15.92a16.83,16.83,0,0,0-2.45-8.77l0,.07c-.12-.17-.23-.34-.35-.5a10,10,0,0,1,1.49-.79l.07,0,.24.34a18.4,18.4,0,0,1,2.7,9.67A18.52,18.52,0,0,1,12,25.67l0-.08-.24.33Zm4.2.84h0a11.87,11.87,0,0,1-1.58-.11h.06A20.71,20.71,0,0,0,16,22.55l0-.15a21.81,21.81,0,0,0,1.59,4.39l-.06-.13a10.24,10.24,0,0,1-1.52.11Zm5.41-2.16.36.5a9.62,9.62,0,0,1-1.5.79l-.07,0L20,25.59A18.66,18.66,0,0,1,20,6.17L20,6.25l.24-.34a11,11,0,0,1,1.61.84l0,0-.36.5a17,17,0,0,0,0,17.47l0-.08ZM24,23.24a7.4,7.4,0,0,1-.59-.84v0A11.34,11.34,0,0,1,22,18.06v0a6.55,6.55,0,0,0,4.18,1.75h0A10.85,10.85,0,0,1,24,23.25Zm-2-7.32A8,8,0,0,1,26.68,14a10.58,10.58,0,0,1,.18,1.94,11,11,0,0,1-.19,2v-.06A8,8,0,0,1,22,15.92ZM16,0A16,16,0,1,0,32,16h0A16,16,0,0,0,16,0Zm0,28.81h0A12.82,12.82,0,1,1,28.81,16h0A12.83,12.83,0,0,1,16,28.81Z" fill="#4c84c4" stroke="none" stroke-width="1px"></path></svg>